# xmcd
# 
# Track frame offsets:
#     150
#     25987
#     54572
#     76475
#     104547
#     137710
#     160192
# 
# Disc length: 2687
# 
# Revision: 4
# Processed by: cddbd v1.5.2PL0 Copyright (c) Steve Scherf et al.
# Submitted via: fre:ac v1.0.17
# 
DISCID=570a7d07
DTITLE=Bill Evans - What's New
DYEAR=1969
DGENRE=
TTITLE0=Straight No Chaser
TTITLE1=Lover Man
TTITLE2=What's New
TTITLE3=Autumn Leaves
TTITLE4=Time Out For Chris
TTITLE5=Spartacus Love Theme
TTITLE6=So What
EXTD=
EXTT0=
EXTT1=
EXTT2=
EXTT3=
EXTT4=
EXTT5=
EXTT6=
PLAYORDER=
